# xmcd
#
# Track frame offsets:
# 150
# 12374
# 25981
# 40695
# 54320
# 76857
# 89029
# 100361
# 115394
# 131279
# 154019
# 168578
# 187246
# 198257
# 210855
# 225853
#
# Disc length: 3132 seconds
#
# Revision: 1
# Processed by: cddbd v1.5.1PL0 Copyright (c) Steve Scherf et al.
# Submitted via: inCDius 2.0b9
#
DISCID=c50c3a10
DTITLE=Mateo - El Gringo Mariachi
DYEAR=1900
DGENRE=
TTITLE0=En Una Canción
TTITLE1=De Las Lunas De Octubre
TTITLE2=Amorcito Corazón
TTITLE3=Tú Y Las Nubes (Banda)
TTITLE4=¿Adonde Vas?
TTITLE5=Gema
TTITLE6=Entre La Espada Y La Pared
TTITLE7=Siempre Hace Frió
TTITLE8=Prieta Linda (Banda)
TTITLE9=Noche Buena
TTITLE10=Prenda De Mi Alma
TTITLE11=¿Cuando Regresare?
TTITLE12=Cuando Vivas Conmigo (Mariachi)
TTITLE13=Dos Pies Izquierdos
TTITLE14=Mi Hermanita (para Selene)
TTITLE15=Pepita
EXTD=
EXTT0=
EXTT1=
EXTT2=
EXTT3=
EXTT4=
EXTT5=
EXTT6=
EXTT7=
EXTT8=
EXTT9=
EXTT10=
EXTT11=
EXTT12=
EXTT13=
EXTT14=
EXTT15=
PLAYORDER=
